<svg width="26" height="26" viewBox="0 0 26 26" fill="none" xmlns="http://www.w3.org/2000/svg">
<rect width="26" height="26" rx="7" fill="#4A4A4A"/>
<g clip-path="url(#clip0_1021_250)">
<mask id="mask0_1021_250" style="mask-type:luminance" maskUnits="userSpaceOnUse" x="4" y="4" width="18" height="18">
<path d="M4 4H22V22H4V4Z" fill="white"/>
</mask>
<g mask="url(#mask0_1021_250)">
<path d="M20.5 9.25H15.25V7.75H20.5V9.25ZM21.7945 16.75C21.463 17.7228 20.2728 19 17.9688 19C15.6633 19 13.7957 17.7032 13.7957 14.7437C13.7957 11.8112 15.5395 10.3037 17.8953 10.3037C20.2068 10.3037 21.6183 11.6403 21.9265 13.6233C21.985 14.0028 22.0082 14.5142 21.9977 15.2282H15.9775C16.075 17.6365 18.5898 17.7122 19.4185 16.75H21.7945ZM16.03 13.75H19.7537C19.675 12.5897 18.9017 12.0858 17.896 12.0858C16.7965 12.0858 16.1883 12.6618 16.03 13.75ZM8.8495 18.991H4V7.76575H9.21475C13.3217 7.8265 13.3998 11.8488 11.2548 12.9453C13.8505 13.8903 13.9375 18.991 8.8495 18.991ZM6.25 12.25H8.938C10.819 12.25 11.1175 10 8.704 10H6.25V12.25ZM8.79325 14.5H6.25V16.762H8.75575C11.047 16.762 10.9067 14.5 8.79325 14.5Z" fill="white"/>
</g>
</g>
<defs>
<clipPath id="clip0_1021_250">
<rect width="18" height="18" fill="white" transform="translate(4 4)"/>
</clipPath>
</defs>
</svg>
