<svg width="13" height="15" viewBox="0 0 13 15" fill="none" xmlns="http://www.w3.org/2000/svg">
<path d="M11.7318 6.72529C11.8784 6.57355 11.9607 6.36776 11.9607 6.15317C11.9607 5.93859 11.8784 5.73279 11.7318 5.58106C11.5853 5.42932 11.3866 5.34408 11.1793 5.34408C10.9721 5.34408 10.7734 5.42932 10.6268 5.58106L7.28 9.04808V1.30769C7.28 1.09348 7.19782 0.888039 7.05154 0.736567C6.90526 0.585096 6.70687 0.499999 6.5 0.499999C6.29313 0.499999 6.09473 0.585096 5.94846 0.736567C5.80218 0.888039 5.72 1.09348 5.72 1.30769V9.04808L2.37185 5.5824C2.22532 5.43067 2.02658 5.34543 1.81935 5.34543C1.61212 5.34543 1.41338 5.43067 1.26685 5.5824C1.12032 5.73414 1.038 5.93993 1.038 6.15452C1.038 6.3691 1.12032 6.5749 1.26685 6.72663L5.94685 11.5728C6.01931 11.6481 6.10542 11.7078 6.20023 11.7486C6.29504 11.7894 6.39669 11.8103 6.49935 11.8103C6.60201 11.8103 6.70366 11.7894 6.79847 11.7486C6.89328 11.7078 6.97939 11.6481 7.05185 11.5728L11.7318 6.72529ZM12.22 14.5H0.78C0.573131 14.5 0.374735 14.4149 0.228457 14.2634C0.0821784 14.112 0 13.9065 0 13.6923C0 13.4781 0.0821784 13.2727 0.228457 13.1212C0.374735 12.9697 0.573131 12.8846 0.78 12.8846H12.22C12.4269 12.8846 12.6253 12.9697 12.7715 13.1212C12.9178 13.2727 13 13.4781 13 13.6923C13 13.9065 12.9178 14.112 12.7715 14.2634C12.6253 14.4149 12.4269 14.5 12.22 14.5Z" fill="white"/>
</svg>
