<svg width="26" height="26" viewBox="0 0 26 26" fill="none" xmlns="http://www.w3.org/2000/svg">
<rect width="26" height="26" rx="7" fill="#4A4A4A"/>
<g clip-path="url(#clip0_1021_251)">
<path d="M13.0001 3.87173C7.96532 3.87173 3.87183 7.9758 3.87183 13.0234C4.37129 25.1648 21.6308 25.1613 22.1283 13.0234C22.1283 7.9758 18.0349 3.87173 13.0001 3.87173ZM19.0368 8.09379C20.1201 9.42383 20.7814 11.12 20.7935 12.9666C20.5379 12.9097 17.9616 12.3889 15.3652 12.7144C15.1569 12.1963 14.9312 11.6771 14.6835 11.1768C17.5642 9.99728 18.8706 8.31749 19.0368 8.09379ZM13.0001 5.21407C14.9839 5.21407 16.7934 5.95836 18.1688 7.18673C18.0308 7.38602 16.8584 8.96819 14.0834 10.0096C12.8054 7.65852 11.3895 5.72237 11.1744 5.43372C11.7586 5.29536 12.3713 5.2181 13.0001 5.21407ZM9.68547 5.95836C9.89244 6.24316 11.288 8.17912 12.5781 10.4814C8.9308 11.4493 5.71766 11.4372 5.36886 11.4332C5.87197 9.00893 7.50699 6.99149 9.68547 5.95836ZM5.20244 13.0398C5.20244 12.9585 5.20244 12.877 5.20647 12.7997C5.5472 12.8038 9.32841 12.8526 13.219 11.6853C13.4421 12.1206 13.6571 12.568 13.8518 13.0113C13.7463 13.0398 13.6448 13.0723 13.5434 13.1049C9.52289 14.4065 7.38477 17.9573 7.20643 18.2625C5.96114 16.8794 5.20244 15.0451 5.20244 13.0398ZM13.0041 20.8534C11.2029 20.8534 9.53942 20.2351 8.21688 19.202C8.35486 18.9172 9.93703 15.8586 14.3349 14.321C14.347 14.317 14.3674 14.3129 14.3835 14.3047C15.4789 17.1559 15.9292 19.5435 16.047 20.2309C15.1138 20.6337 14.0834 20.8534 13.0041 20.8534ZM17.3613 19.5153C17.2761 19.0394 16.8622 16.7535 15.8441 13.9428C18.2864 13.5523 20.4326 14.1909 20.7003 14.2764C20.3513 16.4524 19.1058 18.3274 17.3613 19.5153Z" fill="white"/>
</g>
<defs>
<clipPath id="clip0_1021_251">
<rect width="19.2174" height="19.2174" fill="white" transform="translate(3.39136 3.3913)"/>
</clipPath>
</defs>
</svg>
