<svg width="248" height="166" viewBox="0 0 248 166" fill="none" xmlns="http://www.w3.org/2000/svg">
<path d="M82.6665 41.3333C82.6665 18.5055 101.172 1.14441e-05 124 1.14441e-05H125.333C147.425 1.14441e-05 165.333 17.9086 165.333 40V152.333C165.333 159.513 159.513 165.333 152.333 165.333H116.666C97.8888 165.333 82.6665 150.111 82.6665 131.333V41.3333Z" fill="white"/>
<path d="M0 41.3333C0 18.5055 18.5056 1.14441e-05 41.3333 1.14441e-05H42.6667C64.7581 1.14441e-05 82.6667 17.9086 82.6667 40V124C82.6667 146.828 64.1611 165.333 41.3333 165.333V165.333C18.5056 165.333 0 146.828 0 124V41.3333Z" fill="white"/>
<path d="M116.666 82.6667C97.8888 82.6667 82.6665 67.4444 82.6665 48.6667L82.6665 41.3333C82.6665 18.5056 101.172 1.44499e-05 124 1.34521e-05L206.667 9.83857e-06C229.494 8.84074e-06 248 18.5056 248 41.3333V41.3333C248 64.1611 229.494 82.6667 206.667 82.6667L116.666 82.6667Z" fill="white"/>
<path d="M124 165.333C101.172 165.333 82.6665 146.828 82.6665 124V124C82.6665 101.172 101.172 82.6667 124 82.6667L206.667 82.6667C229.494 82.6667 248 101.172 248 124V124C248 146.828 229.494 165.333 206.667 165.333L124 165.333Z" fill="white"/>
<path d="M82.6665 41.3333C82.6665 18.5056 101.172 1.14441e-05 124 1.14441e-05H125.333C147.425 1.14441e-05 165.333 17.9086 165.333 40V82.6667H124C101.172 82.6667 82.6665 64.1611 82.6665 41.3333V41.3333Z" fill="white"/>
<path d="M82.6665 124C82.6665 146.828 101.172 165.333 124 165.333H125.333C147.425 165.333 165.333 147.425 165.333 125.333V82.6667H124C101.172 82.6667 82.6665 101.172 82.6665 124V124Z" fill="white"/>
</svg>
