<svg width="26" height="26" viewBox="0 0 26 26" fill="none" xmlns="http://www.w3.org/2000/svg">
<rect width="26" height="26" rx="7" fill="#4A4A4A"/>
<path d="M8.78329 6.16666C8.78306 6.60869 8.60726 7.03252 8.29454 7.34493C7.98182 7.65733 7.55781 7.83272 7.11578 7.83249C6.67376 7.83227 6.24992 7.65647 5.93752 7.34375C5.62511 7.03103 5.44973 6.60702 5.44995 6.16499C5.45017 5.72297 5.62598 5.29913 5.9387 4.98673C6.25141 4.67432 6.67542 4.49894 7.11745 4.49916C7.55948 4.49938 7.98331 4.67519 8.29572 4.98791C8.60812 5.30062 8.78351 5.72463 8.78329 6.16666ZM8.83329 9.06666H5.49995V19.5H8.83329V9.06666ZM14.1 9.06666H10.7833V19.5H14.0666V14.025C14.0666 10.975 18.0416 10.6917 18.0416 14.025V19.5H21.3333V12.8917C21.3333 7.74999 15.45 7.94166 14.0666 10.4667L14.1 9.06666Z" fill="white"/>
</svg>
