<svg width="27" height="26" viewBox="0 0 27 26" fill="none" xmlns="http://www.w3.org/2000/svg">
<rect x="0.5" width="26" height="26" rx="7" fill="#4A4A4A"/>
<g clip-path="url(#clip0_1021_251)">
<path d="M13.5001 3.87173C8.46532 3.87173 4.37183 7.9758 4.37183 13.0234C4.87129 25.1648 22.1308 25.1613 22.6283 13.0234C22.6283 7.9758 18.5349 3.87173 13.5001 3.87173ZM19.5368 8.09379C20.6201 9.42383 21.2814 11.12 21.2935 12.9666C21.0379 12.9097 18.4616 12.3889 15.8652 12.7144C15.6569 12.1963 15.4312 11.6771 15.1835 11.1768C18.0642 9.99728 19.3706 8.31749 19.5368 8.09379ZM13.5001 5.21407C15.4839 5.21407 17.2934 5.95836 18.6688 7.18673C18.5308 7.38602 17.3584 8.96819 14.5834 10.0096C13.3054 7.65852 11.8895 5.72237 11.6744 5.43372C12.2586 5.29536 12.8713 5.2181 13.5001 5.21407ZM10.1855 5.95836C10.3924 6.24316 11.788 8.17912 13.0781 10.4814C9.4308 11.4493 6.21766 11.4372 5.86886 11.4332C6.37197 9.00893 8.00699 6.99149 10.1855 5.95836ZM5.70244 13.0398C5.70244 12.9585 5.70244 12.877 5.70647 12.7997C6.0472 12.8038 9.82841 12.8526 13.719 11.6853C13.9421 12.1206 14.1571 12.568 14.3518 13.0113C14.2463 13.0398 14.1448 13.0723 14.0434 13.1049C10.0229 14.4065 7.88477 17.9573 7.70643 18.2625C6.46114 16.8794 5.70244 15.0451 5.70244 13.0398ZM13.5041 20.8534C11.7029 20.8534 10.0394 20.2351 8.71688 19.202C8.85486 18.9172 10.437 15.8586 14.8349 14.321C14.847 14.317 14.8674 14.3129 14.8835 14.3047C15.9789 17.1559 16.4292 19.5435 16.547 20.2309C15.6138 20.6337 14.5834 20.8534 13.5041 20.8534ZM17.8613 19.5153C17.7761 19.0394 17.3622 16.7535 16.3441 13.9428C18.7864 13.5523 20.9326 14.1909 21.2003 14.2764C20.8513 16.4524 19.6058 18.3274 17.8613 19.5153Z" fill="white"/>
</g>
<defs>
<clipPath id="clip0_1021_251">
<rect width="19.2174" height="19.2174" fill="white" transform="translate(3.89136 3.3913)"/>
</clipPath>
</defs>
</svg>
